<svg width="143" height="81" viewBox="0 0 143 81" fill="none" xmlns="http://www.w3.org/2000/svg">
<path d="M10.92 79.248C8.14669 78.5547 5.89335 77.0987 4.16002 74.88C2.49602 72.7307 1.14402 70.1307 0.104019 67.08C0.0346855 66.1787 1.87159e-05 64.9307 1.87159e-05 63.336C0.0693522 61.7413 0.173352 60.2507 0.312019 58.864C0.450686 57.4773 0.589352 56.68 0.728019 56.472C0.936019 56.3333 1.04002 55.9173 1.04002 55.224C0.970686 54.9467 1.00535 54.496 1.14402 53.872C1.35202 53.1787 1.56002 52.4853 1.76802 51.792C2.11469 50.96 2.28802 50.3013 2.28802 49.816C2.28802 49.2613 2.25335 48.8453 2.18402 48.568C2.18402 48.568 2.28802 48.36 2.49602 47.944C2.70402 47.4587 2.94669 47.0773 3.22402 46.8C3.64002 46.384 3.81335 45.968 3.74402 45.552C3.74402 45.136 3.74402 44.928 3.74402 44.928C3.67469 44.6507 3.74402 44.2693 3.95202 43.784C4.16002 43.2987 4.36802 42.9173 4.57602 42.64C4.71469 42.5013 4.88802 42.224 5.09602 41.808C5.37335 41.3227 5.51202 41.08 5.51202 41.08C5.51202 40.872 5.65069 40.3173 5.92802 39.416C6.27469 38.5147 6.65602 37.544 7.07202 36.504C7.48802 35.3947 7.86935 34.3893 8.21602 33.488C8.63202 32.5867 8.94402 31.9973 9.15202 31.72V31.512C9.42935 30.8187 9.81069 30.0907 10.296 29.328C10.3654 28.9813 10.5387 28.4267 10.816 27.664C11.0934 26.832 11.4054 26.0347 11.752 25.272C12.5147 23.608 13.4507 21.736 14.56 19.656C15.7387 17.5067 16.9867 15.392 18.304 13.312C19.6214 11.1627 20.8694 9.25599 22.048 7.59199C23.296 5.85865 24.3707 4.57599 25.272 3.74399C26.4507 2.42666 27.6294 1.49066 28.808 0.935988C30.056 0.311988 31.2 0.519988 32.24 1.55999C32.7254 2.04532 33.1414 2.77332 33.488 3.74399C33.8347 4.64532 33.9734 5.51199 33.904 6.34399C33.904 7.10666 33.6267 7.52266 33.072 7.59199C32.5867 7.86932 31.928 8.66666 31.096 9.98399C30.264 11.232 29.328 12.7227 28.288 14.456C27.3174 16.1893 26.3467 17.992 25.376 19.864C24.4054 21.6667 23.504 23.296 22.672 24.752C21.7707 26.7627 20.9387 28.5307 20.176 30.056C19.4134 31.512 19.032 32.24 19.032 32.24C18.9627 32.448 18.8934 32.6213 18.824 32.76C18.7547 32.8987 18.6854 33.0373 18.616 33.176C17.576 35.3253 16.7094 37.3013 16.016 39.104C15.3227 40.8373 14.6294 42.6747 13.936 44.616C13.52 45.1013 13.2774 45.5867 13.208 46.072C13.1387 46.5573 13.104 46.8 13.104 46.8C12.9654 46.7307 12.8614 46.904 12.792 47.32C12.7227 47.6667 12.584 48.0827 12.376 48.568C12.0294 48.8453 11.8214 49.296 11.752 49.92C11.6827 50.4747 11.648 51.0293 11.648 51.584C11.1627 52.832 10.712 54.3573 10.296 56.16C9.88002 57.8933 9.56802 59.592 9.36002 61.256C9.22135 62.8507 9.18669 64.0987 9.25602 65C9.39469 66.1787 9.70669 67.184 10.192 68.016C10.7467 68.7787 11.5094 69.4027 12.48 69.888C13.2427 70.2347 13.936 70.5467 14.56 70.824C15.184 71.032 15.7387 71.136 16.224 71.136C16.7787 71.2053 17.472 71.2053 18.304 71.136C19.2054 70.9973 20.4187 70.7893 21.944 70.512H21.84C22.7414 70.3733 23.6774 70.2 24.648 69.992C25.688 69.7147 26.6587 69.472 27.56 69.264C28.392 69.1253 29.1894 68.9867 29.952 68.848C30.7147 68.64 31.304 68.4667 31.72 68.328C33.2454 67.912 34.4587 67.5653 35.36 67.288C36.3307 67.0107 36.9894 67.0107 37.336 67.288C37.6827 67.5653 38.064 68.0853 38.48 68.848C38.896 69.6107 39 70.304 38.792 70.928C38.6534 71.2747 37.96 71.968 36.712 73.008C35.464 74.1173 34.0427 75.192 32.448 76.232C30.8534 77.3413 29.3974 78.104 28.08 78.52C26.6934 79.144 24.8214 79.56 22.464 79.768C20.176 80.0453 17.9574 80.1147 15.808 79.976C13.6587 79.8373 12.0294 79.5947 10.92 79.248ZM46.7529 71.136C46.1982 70.5813 45.7822 69.7493 45.5049 68.64C45.2969 67.5307 45.2276 66.456 45.2969 65.416C45.3662 64.3067 45.5396 63.4747 45.8169 62.92C45.8169 62.3653 45.8862 61.9493 46.0249 61.672C46.2329 61.3253 46.3022 61.0133 46.2329 60.736C46.1636 60.4587 46.2329 59.9733 46.4409 59.28C46.6489 58.5867 46.8569 57.928 47.0649 57.304C47.5502 56.1947 48.1049 54.7733 48.7289 53.04C49.3529 51.2373 49.9769 49.4347 50.6009 47.632C51.2249 45.76 51.7449 44.1653 52.1609 42.848C52.5769 41.4613 52.8196 40.6293 52.8889 40.352C52.8889 39.52 53.4436 39.0693 54.5529 39C55.3849 38.7227 56.3902 39.0693 57.5689 40.04C58.7476 41.0107 59.6836 42.0507 60.3769 43.16C60.9316 43.7147 61.1396 44.4427 61.0009 45.344C60.8622 46.2453 60.4116 47.528 59.6489 49.192C59.3716 49.7467 59.0249 50.6827 58.6089 52C58.2622 53.248 58.0196 54.288 57.8809 55.12C57.6036 55.6747 57.2569 56.472 56.8409 57.512C56.4942 58.4827 56.1822 59.4187 55.9049 60.32C55.7662 60.6667 55.6276 61.3253 55.4889 62.296C55.3502 63.1973 55.1769 64.1333 54.9689 65.104C54.7609 66.0747 54.4836 66.8373 54.1369 67.392C53.5129 70.2347 52.4036 71.8987 50.8089 72.384C49.2836 72.8693 47.9316 72.4533 46.7529 71.136ZM57.9849 29.432C57.2222 28.8773 56.6329 28.2187 56.2169 27.456C55.8702 26.624 55.6622 25.896 55.5929 25.272C55.5929 24.648 55.6622 24.2667 55.8009 24.128C56.4942 23.3653 57.0836 22.36 57.5689 21.112C58.1236 19.864 58.7129 18.72 59.3369 17.68C59.4756 17.472 59.6489 17.1947 59.8569 16.848C60.1342 16.432 60.4116 16.1893 60.6889 16.12C61.5209 15.5653 62.6649 15.6 64.1209 16.224C65.6462 16.848 66.7556 17.7147 67.4489 18.824C68.0729 20.1413 68.2462 21.4933 67.9689 22.88C67.7609 24.2667 67.0329 25.7227 65.7849 27.248C64.7449 28.6347 63.4276 29.536 61.8329 29.952C60.2382 30.2987 58.9556 30.1253 57.9849 29.432ZM72.367 73.528C70.0096 72.5573 68.2763 71.552 67.167 70.512C66.127 69.4027 65.711 68.432 65.919 67.6C66.0576 67.184 66.3003 66.8027 66.647 66.456C66.9936 66.1093 67.7563 65.9707 68.935 66.04C70.183 66.04 72.0896 66.352 74.655 66.976C75.4176 66.976 76.1803 66.9413 76.943 66.872C77.7056 66.8027 78.399 66.6987 79.023 66.56C79.7163 66.4213 80.271 66.248 80.687 66.04C81.0336 65.9013 81.1376 65.728 80.999 65.52C80.8603 65.2427 80.6176 64.9653 80.271 64.688C79.9936 64.3413 79.6816 64.1333 79.335 64.064C78.9883 63.9253 78.6763 63.856 78.399 63.856C78.2603 63.5093 77.9483 63.1627 77.463 62.816C77.047 62.4693 76.527 62.088 75.903 61.672C74.3776 60.424 72.991 59.3147 71.743 58.344C70.495 57.3733 70.0096 56.6453 70.287 56.16C70.287 55.8827 70.287 55.744 70.287 55.744C70.287 55.6747 70.287 55.64 70.287 55.64C69.8016 55.64 69.351 54.9813 68.935 53.664C68.519 52.2773 68.311 51.0293 68.311 49.92C68.311 48.5333 68.5883 47.1467 69.143 45.76C69.767 44.3733 70.5296 43.056 71.431 41.808C72.4016 40.56 73.3723 39.4507 74.343 38.48C75.6603 37.232 77.047 36.0187 78.503 34.84C80.0283 33.592 81.6576 32.4827 83.391 31.512C85.1936 30.5413 87.1696 29.7787 89.319 29.224C90.2896 29.016 91.399 28.912 92.647 28.912C93.895 28.912 94.7963 29.0853 95.351 29.432C95.9056 29.0853 96.599 29.1893 97.431 29.744C98.263 30.2293 99.095 30.9227 99.927 31.824C100.759 32.7253 101.383 33.6267 101.799 34.528C101.799 35.36 101.764 36.4 101.695 37.648C101.695 38.8267 101.626 39.8667 101.487 40.768C101.348 41.6693 101.036 42.12 100.551 42.12C100.551 42.12 100.447 42.1547 100.239 42.224C100.1 42.224 100.031 42.3973 100.031 42.744C100.031 43.4373 99.511 44.2347 98.471 45.136C97.1536 46.0373 95.9056 46.7653 94.727 47.32C93.5483 47.8747 92.647 47.9093 92.023 47.424C91.607 47.1467 91.2256 46.8693 90.879 46.592C90.5323 46.3147 90.2203 45.968 89.943 45.552C89.943 45.552 89.839 45.4133 89.631 45.136C89.4923 44.7893 89.423 44.4773 89.423 44.2C89.423 43.9227 89.527 43.68 89.735 43.472C89.943 43.1947 90.047 43.056 90.047 43.056C91.0176 42.1547 91.7456 41.3227 92.231 40.56C92.7856 39.7973 93.167 39.1387 93.375 38.584C93.583 37.96 93.687 37.4747 93.687 37.128C93.687 36.712 93.583 36.4693 93.375 36.4C93.2363 36.2613 92.8896 36.192 92.335 36.192C91.9883 36.192 91.2256 36.4693 90.047 37.024C88.9376 37.5787 87.759 38.272 86.511 39.104C85.263 39.8667 84.2923 40.56 83.599 41.184C83.3216 41.6693 83.1136 41.9813 82.975 42.12C82.9056 42.2587 82.7323 42.328 82.455 42.328C82.455 42.0507 82.2816 42.0853 81.935 42.432C81.5883 42.7787 81.1723 43.264 80.687 43.888C80.2016 44.512 79.7163 45.1707 79.231 45.864C78.7456 46.5573 78.3643 47.112 78.087 47.528C78.0176 48.152 77.8443 48.7413 77.567 49.296C77.359 49.7813 77.2896 50.3013 77.359 50.856C77.4283 51.5493 77.775 52.208 78.399 52.832C79.023 53.456 79.9243 54.2533 81.103 55.224C83.5296 57.0267 85.3323 58.448 86.511 59.488C87.759 60.528 88.6256 61.36 89.111 61.984C89.5963 62.608 89.9083 63.232 90.047 63.856C91.2256 66.0053 91.3643 67.8773 90.463 69.472C89.5616 70.9973 88.175 72.176 86.303 73.008C85.6096 73.3547 84.3963 73.6667 82.663 73.944C80.9296 74.2907 79.0923 74.4293 77.151 74.36C75.279 74.36 73.6843 74.0827 72.367 73.528ZM112.47 71.448C111.916 71.5867 111.188 71.656 110.286 71.656C109.385 71.5867 108.588 71.4827 107.894 71.344C107.27 71.136 106.958 70.928 106.958 70.72C106.958 70.3733 106.785 70.2 106.438 70.2C106.438 70.2 106.057 69.9227 105.294 69.368C104.532 68.744 103.838 68.2933 103.214 68.016C102.59 67.0453 102.174 65.936 101.966 64.688C101.828 63.3707 102.244 61.0827 103.214 57.824C103.284 55.6053 103.908 53.2827 105.086 50.856C106.265 48.36 107.756 45.9333 109.558 43.576C111.361 41.2187 113.233 39.1387 115.174 37.336C117.116 35.464 118.849 34.0773 120.374 33.176C121.345 32.2053 122.628 31.6853 124.222 31.616C125.886 31.5467 127.342 31.8587 128.59 32.552C129.284 32.8987 130.046 33.592 130.878 34.632C131.71 35.672 132.508 36.7813 133.27 37.96C134.033 39.0693 134.622 40.0747 135.038 40.976C135.246 41.7387 135.42 42.432 135.558 43.056C135.766 43.6107 135.905 44.304 135.974 45.136C136.044 45.968 135.974 47.216 135.766 48.88C135.42 50.128 135.108 51.4107 134.83 52.728C134.622 53.976 134.518 55.2587 134.518 56.576C134.38 57.8933 134.518 58.8293 134.934 59.384C135.42 59.9387 136.113 59.9733 137.014 59.488C137.846 59.072 138.713 59.0373 139.614 59.384C140.516 59.6613 141.14 60.216 141.486 61.048C141.902 61.8107 141.798 62.816 141.174 64.064C140.758 64.9653 140.1 65.832 139.198 66.664C138.297 67.496 137.292 68.1893 136.182 68.744C135.073 69.2293 133.998 69.472 132.958 69.472C132.196 69.472 131.433 69.1947 130.67 68.64C129.908 68.016 129.214 67.184 128.59 66.144C127.966 65.104 127.446 63.96 127.03 62.712L126.406 60.32L122.662 63.752C121.761 64.7227 120.86 65.624 119.958 66.456C119.126 67.2187 118.606 67.7733 118.398 68.12C118.052 68.744 117.358 69.2987 116.318 69.784C115.348 70.2693 114.065 70.824 112.47 71.448ZM115.278 61.464C116.457 60.7707 117.462 59.9387 118.294 58.968C119.196 57.9973 120.062 56.9227 120.894 55.744C121.726 54.496 122.628 53.1787 123.598 51.792C124.777 50.1973 125.609 48.9147 126.094 47.944C126.649 46.9733 127.065 45.9333 127.342 44.824C127.065 44.0613 126.684 43.264 126.198 42.432C125.713 41.5307 125.228 41.0453 124.742 40.976C123.772 40.976 122.593 41.5653 121.206 42.744C119.889 43.9227 118.433 45.6213 116.838 47.84C116.561 48.1867 116.214 48.7413 115.798 49.504C115.382 50.2667 114.966 50.9947 114.55 51.688C114.204 52.312 113.961 52.728 113.822 52.936C113.614 53.2133 113.302 53.872 112.886 54.912C112.54 55.8827 112.228 56.888 111.95 57.928C111.673 58.8987 111.534 59.592 111.534 60.008C111.534 60.424 111.569 60.8747 111.638 61.36C111.777 61.8453 112.124 62.1573 112.678 62.296C113.233 62.4347 114.1 62.1573 115.278 61.464Z" fill="#FF4460"/>
</svg>
