<svg width="54" height="45" viewBox="0 0 54 45" fill="none" xmlns="http://www.w3.org/2000/svg">
<path fill-rule="evenodd" clip-rule="evenodd" d="M0 5.41667C0 2.42513 2.42512 0 5.41667 0H47.9167C50.9082 0 53.3333 2.42512 53.3333 5.41667V38.75C53.3333 41.7415 50.9082 44.1667 47.9167 44.1667H5.41667C2.42513 44.1667 0 41.7415 0 38.75V5.41667ZM5.41667 2.5C3.80584 2.5 2.5 3.80584 2.5 5.41667V38.75C2.5 40.3608 3.80584 41.6667 5.41667 41.6667H47.9167C49.5275 41.6667 50.8333 40.3608 50.8333 38.75V5.41667C50.8333 3.80584 49.5275 2.5 47.9167 2.5H5.41667Z" fill="#A7A2A3"/>
<circle cx="12.4997" cy="11.6667" r="5.41667" fill="#A7A2A3"/>
<path d="M7.08301 34.9999V31.9403C7.08301 31.4982 7.2586 31.0743 7.57116 30.7618L14.7093 23.6236C15.3384 22.9946 16.3506 22.9705 17.0089 23.5689L19.2569 25.6126C19.9085 26.2049 20.9084 26.1882 21.5398 25.5743L34.2381 13.2288C34.8915 12.5935 35.934 12.6009 36.5784 13.2453L46.5949 23.2618C46.9074 23.5743 47.083 23.9982 47.083 24.4403V34.9999C47.083 35.9204 46.3368 36.6666 45.4163 36.6666H8.74967C7.8292 36.6666 7.08301 35.9204 7.08301 34.9999Z" fill="#A7A2A3"/>
</svg>
