<svg width="24" height="24" viewBox="0 0 24 24" fill="none" xmlns="http://www.w3.org/2000/svg">
<path d="M21.8043 17.1786H21.0543V9.68558C21.0543 8.53264 20.8072 7.42489 20.3193 6.3927L20.9975 6.07227C21.5326 7.20533 21.8043 8.42089 21.8043 9.68558V17.1786Z" fill="#40393A" stroke="#40393A" stroke-width="0.5"/>
<path d="M10.4478 23.289C4.92253 23.289 2.12109 21.2332 2.12109 17.1789V9.68584C2.12109 8.40391 2.39972 7.17297 2.94947 6.02734L3.62559 6.35172C3.12497 7.39534 2.87109 8.51697 2.87109 9.68584V17.1789C2.87109 20.7857 5.34947 22.539 10.4478 22.539V23.289Z" fill="#40393A" stroke="#40393A" stroke-width="0.5"/>
<path d="M11.5834 23.2933H9.79482C9.15245 23.2933 8.62988 22.7676 8.62988 22.1213C8.62988 21.475 9.15245 20.9492 9.79482 20.9492H11.5834C12.2256 20.9492 12.7479 21.475 12.7479 22.1213C12.7479 22.7676 12.2256 23.2933 11.5834 23.2933ZM9.79482 21.6992C9.56607 21.6992 9.37988 21.8886 9.37988 22.1213C9.37988 22.354 9.56607 22.5433 9.79482 22.5433H11.5834C11.8119 22.5433 11.9979 22.354 11.9979 22.1213C11.9979 21.8886 11.8119 21.6992 11.5834 21.6992H9.79482Z" fill="#40393A" stroke="#40393A" stroke-width="0.5"/>
<path d="M3.63822 6.9445C3.38341 6.9445 3.1331 6.874 2.91447 6.74031C2.2571 6.33925 2.04541 5.47337 2.44254 4.81056C4.15254 1.95494 7.14522 0.25 10.448 0.25H13.4775C16.7803 0.25 19.7732 1.95494 21.4833 4.81075C21.8805 5.47356 21.6686 6.33944 21.0108 6.74069C20.7932 6.874 20.543 6.94469 20.2878 6.94469C19.7934 6.94469 19.3458 6.69025 19.0899 6.26425C17.8903 4.26006 15.7923 3.064 13.4773 3.064H10.4478C8.13372 3.064 6.0356 4.26006 4.83541 6.26369C4.58435 6.6835 4.12554 6.9445 3.63822 6.9445ZM10.4478 0.999812C7.41129 0.999812 4.65916 2.56844 3.08585 5.19569C2.89947 5.50694 2.99791 5.9125 3.30522 6.10019C3.40629 6.16187 3.52141 6.1945 3.63804 6.1945C3.8666 6.1945 4.0736 6.07638 4.19191 5.87838C5.52879 3.64637 7.86747 2.314 10.4478 2.314H13.4773C16.0584 2.314 18.3971 3.64637 19.733 5.87838C19.8519 6.07619 20.0591 6.1945 20.2877 6.1945C20.4045 6.1945 20.519 6.16206 20.6195 6.10056C20.9278 5.9125 21.0262 5.50694 20.8398 5.19588C19.2663 2.56844 16.5138 0.999812 13.4773 0.999812H10.4478Z" fill="#40393A" stroke="#40393A" stroke-width="0.5"/>
<path d="M2.91975 18.838C1.30969 18.838 0 17.5172 0 15.8938V12.7133C0 11.0901 1.30969 9.76953 2.91975 9.76953V10.5195C1.72331 10.5195 0.75 11.5037 0.75 12.7133V15.8938C0.75 17.1036 1.72331 18.0878 2.91975 18.0878V18.838Z" fill="#40393A" stroke="#40393A" stroke-width="0.5"/>
<path d="M4.36714 19.503H3.41183C2.73345 19.503 2.18164 18.9472 2.18164 18.2643V10.3968C2.18164 9.71377 2.73345 9.1582 3.41183 9.1582H4.36714C5.04552 9.1582 5.59752 9.71377 5.59752 10.3968V18.2643C5.59752 18.9474 5.04552 19.503 4.36714 19.503ZM3.41183 9.9082C3.14708 9.9082 2.93164 10.1274 2.93164 10.3968V18.2643C2.93164 18.534 3.14708 18.753 3.41183 18.753H4.36714C4.63208 18.753 4.84752 18.5338 4.84752 18.2643V10.3968C4.84752 10.1274 4.63208 9.9082 4.36714 9.9082H3.41183Z" fill="#40393A" stroke="#40393A" stroke-width="0.5"/>
<path d="M21.0811 18.892V18.142C22.2773 18.142 23.2504 17.1575 23.2504 15.9473V12.7668C23.2504 11.5566 22.2773 10.5723 21.0811 10.5723V9.82227C22.6909 9.82227 24.0004 11.143 24.0004 12.7668V15.9473C24.0004 17.5711 22.6909 18.892 21.0811 18.892Z" fill="#40393A" stroke="#40393A" stroke-width="0.5"/>
<path d="M20.5894 19.5028H19.6339C18.9555 19.5028 18.4033 18.947 18.4033 18.2641V10.3965C18.4033 9.71358 18.9553 9.1582 19.6339 9.1582H20.5894C21.2676 9.1582 21.8194 9.71358 21.8194 10.3965V18.2641C21.8192 18.9472 21.2676 19.5028 20.5894 19.5028ZM19.6339 9.9082C19.3689 9.9082 19.1533 10.1272 19.1533 10.3965V18.2641C19.1533 18.5338 19.3688 18.7528 19.6339 18.7528H20.5894C20.8539 18.7528 21.0694 18.5336 21.0694 18.2641V10.3965C21.0694 10.1272 20.8541 9.9082 20.5894 9.9082H19.6339Z" fill="#40393A" stroke="#40393A" stroke-width="0.5"/>
</svg>
